<mxfile host="app.diagrams.net" agent="Mozilla/5.0 (Windows NT 10.0; Win64; x64) AppleWebKit/537.36 (KHTML, like Gecko) Chrome/136.0.0.0 Safari/537.36 Edg/136.0.0.0" version="27.0.6">
  <diagram name="Page-1" id="0783ab3e-0a74-02c8-0abd-f7b4e66b4bec">
    <mxGraphModel dx="1657" dy="794" grid="1" gridSize="10" guides="1" tooltips="1" connect="1" arrows="1" fold="1" page="1" pageScale="1" pageWidth="850" pageHeight="1100" background="none" math="0" shadow="0">
      <root>
        <mxCell id="0" />
        <mxCell id="1" parent="0" />
        <mxCell id="1c1d494c118603dd-1" value="" style="swimlane;html=1;childLayout=stackLayout;startSize=20;rounded=0;shadow=0;comic=0;labelBackgroundColor=none;strokeWidth=1;fontFamily=Verdana;fontSize=12;align=center;" parent="1" vertex="1">
          <mxGeometry x="30" width="750" height="800" as="geometry">
            <mxRectangle x="40" y="20" width="70" height="30" as="alternateBounds" />
          </mxGeometry>
        </mxCell>
        <mxCell id="1c1d494c118603dd-2" value="База данных" style="swimlane;html=1;startSize=20;" parent="1c1d494c118603dd-1" vertex="1">
          <mxGeometry y="20" width="250" height="780" as="geometry">
            <mxRectangle y="20" width="40" height="970" as="alternateBounds" />
          </mxGeometry>
        </mxCell>
        <mxCell id="Ls8IXhK7E01eCjvYxGQd-15" style="edgeStyle=orthogonalEdgeStyle;rounded=0;orthogonalLoop=1;jettySize=auto;html=1;" parent="1c1d494c118603dd-2" source="Ls8IXhK7E01eCjvYxGQd-12" target="Ls8IXhK7E01eCjvYxGQd-13" edge="1">
          <mxGeometry relative="1" as="geometry" />
        </mxCell>
        <mxCell id="Ls8IXhK7E01eCjvYxGQd-12" value="Поиск запрашиваемого растения" style="rounded=1;whiteSpace=wrap;html=1;shadow=0;comic=0;labelBackgroundColor=none;strokeWidth=1;fontFamily=Verdana;fontSize=12;align=center;arcSize=50;" parent="1c1d494c118603dd-2" vertex="1">
          <mxGeometry x="10" y="330" width="230" height="30" as="geometry" />
        </mxCell>
        <mxCell id="Ls8IXhK7E01eCjvYxGQd-13" value="Возврат списка растений" style="rounded=1;whiteSpace=wrap;html=1;shadow=0;comic=0;labelBackgroundColor=none;strokeWidth=1;fontFamily=Verdana;fontSize=12;align=center;arcSize=50;" parent="1c1d494c118603dd-2" vertex="1">
          <mxGeometry x="10" y="390" width="230" height="30" as="geometry" />
        </mxCell>
        <mxCell id="1c1d494c118603dd-3" value="Система мониторинга растений" style="swimlane;html=1;startSize=20;" parent="1c1d494c118603dd-1" vertex="1">
          <mxGeometry x="250" y="20" width="250" height="780" as="geometry" />
        </mxCell>
        <mxCell id="Ls8IXhK7E01eCjvYxGQd-10" value="Запрос списка растений" style="rounded=1;whiteSpace=wrap;html=1;shadow=0;comic=0;labelBackgroundColor=none;strokeWidth=1;fontFamily=Verdana;fontSize=12;align=center;arcSize=50;" parent="1c1d494c118603dd-3" vertex="1">
          <mxGeometry x="30" y="280" width="190" height="30" as="geometry" />
        </mxCell>
        <mxCell id="Ls8IXhK7E01eCjvYxGQd-21" style="edgeStyle=orthogonalEdgeStyle;rounded=0;orthogonalLoop=1;jettySize=auto;html=1;" parent="1c1d494c118603dd-3" source="Ls8IXhK7E01eCjvYxGQd-16" target="Ls8IXhK7E01eCjvYxGQd-20" edge="1">
          <mxGeometry relative="1" as="geometry" />
        </mxCell>
        <mxCell id="Ls8IXhK7E01eCjvYxGQd-16" value="" style="whiteSpace=wrap;html=1;rounded=0;shadow=0;comic=0;labelBackgroundColor=none;strokeWidth=1;fillColor=#000000;fontFamily=Verdana;fontSize=12;align=center;rotation=0;" parent="1c1d494c118603dd-3" vertex="1">
          <mxGeometry x="50" y="450" width="147" height="10" as="geometry" />
        </mxCell>
        <mxCell id="Ls8IXhK7E01eCjvYxGQd-20" value="Отображение растений" style="rounded=1;whiteSpace=wrap;html=1;shadow=0;comic=0;labelBackgroundColor=none;strokeWidth=1;fontFamily=Verdana;fontSize=12;align=center;arcSize=50;" parent="1c1d494c118603dd-3" vertex="1">
          <mxGeometry x="28.5" y="510" width="190" height="30" as="geometry" />
        </mxCell>
        <mxCell id="1c1d494c118603dd-4" value="Пользователь" style="swimlane;html=1;startSize=20;" parent="1c1d494c118603dd-1" vertex="1">
          <mxGeometry x="500" y="20" width="250" height="780" as="geometry" />
        </mxCell>
        <mxCell id="1c1d494c118603dd-27" style="edgeStyle=orthogonalEdgeStyle;rounded=0;html=1;labelBackgroundColor=none;startArrow=none;startFill=0;startSize=5;endArrow=classicThin;endFill=1;endSize=5;jettySize=auto;orthogonalLoop=1;strokeWidth=1;fontFamily=Verdana;fontSize=12" parent="1c1d494c118603dd-4" source="60571a20871a0731-4" target="60571a20871a0731-8" edge="1">
          <mxGeometry relative="1" as="geometry" />
        </mxCell>
        <mxCell id="60571a20871a0731-4" value="" style="ellipse;whiteSpace=wrap;html=1;rounded=0;shadow=0;comic=0;labelBackgroundColor=none;strokeWidth=1;fillColor=#000000;fontFamily=Verdana;fontSize=12;align=center;" parent="1c1d494c118603dd-4" vertex="1">
          <mxGeometry x="100" y="30" width="40" height="40" as="geometry" />
        </mxCell>
        <mxCell id="Ls8IXhK7E01eCjvYxGQd-5" style="edgeStyle=orthogonalEdgeStyle;rounded=0;orthogonalLoop=1;jettySize=auto;html=1;" parent="1c1d494c118603dd-4" source="60571a20871a0731-8" target="Ls8IXhK7E01eCjvYxGQd-3" edge="1">
          <mxGeometry relative="1" as="geometry" />
        </mxCell>
        <mxCell id="60571a20871a0731-8" value="Вход в систему" style="rounded=1;whiteSpace=wrap;html=1;shadow=0;comic=0;labelBackgroundColor=none;strokeWidth=1;fontFamily=Verdana;fontSize=12;align=center;arcSize=50;" parent="1c1d494c118603dd-4" vertex="1">
          <mxGeometry x="65" y="100" width="110" height="30" as="geometry" />
        </mxCell>
        <mxCell id="1c1d494c118603dd-5" value="Ввод параметров и фильтров" style="rounded=1;whiteSpace=wrap;html=1;shadow=0;comic=0;labelBackgroundColor=none;strokeWidth=1;fontFamily=Verdana;fontSize=12;align=center;arcSize=50;" parent="1c1d494c118603dd-4" vertex="1">
          <mxGeometry x="52.5" y="310" width="135" height="40" as="geometry" />
        </mxCell>
        <mxCell id="1c1d494c118603dd-45" style="edgeStyle=none;rounded=0;html=1;labelBackgroundColor=none;startArrow=none;startFill=0;startSize=5;endArrow=classicThin;endFill=1;endSize=5;jettySize=auto;orthogonalLoop=1;strokeWidth=1;fontFamily=Verdana;fontSize=12" parent="1c1d494c118603dd-4" source="Ls8IXhK7E01eCjvYxGQd-1" target="60571a20871a0731-5" edge="1">
          <mxGeometry relative="1" as="geometry">
            <mxPoint x="120" y="840" as="sourcePoint" />
          </mxGeometry>
        </mxCell>
        <mxCell id="60571a20871a0731-5" value="" style="shape=mxgraph.bpmn.shape;html=1;verticalLabelPosition=bottom;labelBackgroundColor=#ffffff;verticalAlign=top;perimeter=ellipsePerimeter;outline=end;symbol=terminate;rounded=0;shadow=0;comic=0;strokeWidth=1;fontFamily=Verdana;fontSize=12;align=center;" parent="1c1d494c118603dd-4" vertex="1">
          <mxGeometry x="105" y="730" width="40" height="40" as="geometry" />
        </mxCell>
        <mxCell id="Ls8IXhK7E01eCjvYxGQd-1" value="Выход из системы" style="rounded=1;whiteSpace=wrap;html=1;shadow=0;comic=0;labelBackgroundColor=none;strokeWidth=1;fontFamily=Verdana;fontSize=12;align=center;arcSize=50;" parent="1c1d494c118603dd-4" vertex="1">
          <mxGeometry x="60" y="680" width="130" height="30" as="geometry" />
        </mxCell>
        <mxCell id="Ls8IXhK7E01eCjvYxGQd-8" style="edgeStyle=orthogonalEdgeStyle;rounded=0;orthogonalLoop=1;jettySize=auto;html=1;entryX=0.5;entryY=0;entryDx=0;entryDy=0;" parent="1c1d494c118603dd-4" source="Ls8IXhK7E01eCjvYxGQd-3" target="60571a20871a0731-3" edge="1">
          <mxGeometry relative="1" as="geometry" />
        </mxCell>
        <mxCell id="Ls8IXhK7E01eCjvYxGQd-3" value="Запрос списка растений" style="rounded=1;whiteSpace=wrap;html=1;shadow=0;comic=0;labelBackgroundColor=none;strokeWidth=1;fontFamily=Verdana;fontSize=12;align=center;arcSize=50;" parent="1c1d494c118603dd-4" vertex="1">
          <mxGeometry x="52.5" y="160" width="135" height="40" as="geometry" />
        </mxCell>
        <mxCell id="Ls8IXhK7E01eCjvYxGQd-6" style="edgeStyle=orthogonalEdgeStyle;rounded=0;orthogonalLoop=1;jettySize=auto;html=1;" parent="1c1d494c118603dd-4" source="60571a20871a0731-3" target="1c1d494c118603dd-5" edge="1">
          <mxGeometry relative="1" as="geometry" />
        </mxCell>
        <mxCell id="60571a20871a0731-3" value="" style="whiteSpace=wrap;html=1;rounded=0;shadow=0;comic=0;labelBackgroundColor=none;strokeWidth=1;fillColor=#000000;fontFamily=Verdana;fontSize=12;align=center;rotation=0;" parent="1c1d494c118603dd-4" vertex="1">
          <mxGeometry x="46.5" y="230" width="147" height="10" as="geometry" />
        </mxCell>
        <mxCell id="Ls8IXhK7E01eCjvYxGQd-22" value="Просмотр списка растений" style="rounded=1;whiteSpace=wrap;html=1;shadow=0;comic=0;labelBackgroundColor=none;strokeWidth=1;fontFamily=Verdana;fontSize=12;align=center;arcSize=50;" parent="1c1d494c118603dd-4" vertex="1">
          <mxGeometry x="30" y="560" width="190" height="30" as="geometry" />
        </mxCell>
        <mxCell id="xh-YJBvhMgiuYm3WsLc1-2" style="edgeStyle=orthogonalEdgeStyle;rounded=0;orthogonalLoop=1;jettySize=auto;html=1;" edge="1" parent="1c1d494c118603dd-4" source="xh-YJBvhMgiuYm3WsLc1-1" target="Ls8IXhK7E01eCjvYxGQd-1">
          <mxGeometry relative="1" as="geometry" />
        </mxCell>
        <mxCell id="xh-YJBvhMgiuYm3WsLc1-1" value="Пометка растения" style="rounded=1;whiteSpace=wrap;html=1;shadow=0;comic=0;labelBackgroundColor=none;strokeWidth=1;fontFamily=Verdana;fontSize=12;align=center;arcSize=50;" vertex="1" parent="1c1d494c118603dd-4">
          <mxGeometry x="60" y="630" width="130" height="30" as="geometry" />
        </mxCell>
        <mxCell id="Ls8IXhK7E01eCjvYxGQd-24" style="edgeStyle=orthogonalEdgeStyle;rounded=0;orthogonalLoop=1;jettySize=auto;html=1;entryX=0.5;entryY=0;entryDx=0;entryDy=0;" parent="1c1d494c118603dd-4" source="Ls8IXhK7E01eCjvYxGQd-22" target="xh-YJBvhMgiuYm3WsLc1-1" edge="1">
          <mxGeometry relative="1" as="geometry">
            <mxPoint x="70" y="640" as="targetPoint" />
          </mxGeometry>
        </mxCell>
        <mxCell id="Ls8IXhK7E01eCjvYxGQd-11" style="rounded=0;orthogonalLoop=1;jettySize=auto;html=1;" parent="1c1d494c118603dd-1" source="60571a20871a0731-3" target="Ls8IXhK7E01eCjvYxGQd-10" edge="1">
          <mxGeometry relative="1" as="geometry" />
        </mxCell>
        <mxCell id="Ls8IXhK7E01eCjvYxGQd-14" style="rounded=0;orthogonalLoop=1;jettySize=auto;html=1;" parent="1c1d494c118603dd-1" source="Ls8IXhK7E01eCjvYxGQd-10" target="Ls8IXhK7E01eCjvYxGQd-12" edge="1">
          <mxGeometry relative="1" as="geometry" />
        </mxCell>
        <mxCell id="Ls8IXhK7E01eCjvYxGQd-17" style="rounded=0;orthogonalLoop=1;jettySize=auto;html=1;entryX=0.75;entryY=0;entryDx=0;entryDy=0;" parent="1c1d494c118603dd-1" source="1c1d494c118603dd-5" target="Ls8IXhK7E01eCjvYxGQd-16" edge="1">
          <mxGeometry relative="1" as="geometry" />
        </mxCell>
        <mxCell id="Ls8IXhK7E01eCjvYxGQd-18" style="rounded=0;orthogonalLoop=1;jettySize=auto;html=1;entryX=0.25;entryY=0;entryDx=0;entryDy=0;" parent="1c1d494c118603dd-1" source="Ls8IXhK7E01eCjvYxGQd-13" target="Ls8IXhK7E01eCjvYxGQd-16" edge="1">
          <mxGeometry relative="1" as="geometry" />
        </mxCell>
        <mxCell id="Ls8IXhK7E01eCjvYxGQd-23" style="rounded=0;orthogonalLoop=1;jettySize=auto;html=1;" parent="1c1d494c118603dd-1" source="Ls8IXhK7E01eCjvYxGQd-20" target="Ls8IXhK7E01eCjvYxGQd-22" edge="1">
          <mxGeometry relative="1" as="geometry" />
        </mxCell>
      </root>
    </mxGraphModel>
  </diagram>
</mxfile>
